<mxfile host="app.diagrams.net" modified="2023-09-25T05:57:03.060Z" agent="Mozilla/5.0 (Windows NT 10.0; Win64; x64; rv:109.0) Gecko/20100101 Firefox/117.0" etag="8zQpeczVLFUwE2o8Ur6p" version="21.8.0" type="github">
  <diagram name="Sivu-1" id="W4FFq_kZuzr-m5j0ewvB">
    <mxGraphModel dx="1434" dy="774" grid="1" gridSize="10" guides="1" tooltips="1" connect="1" arrows="1" fold="1" page="1" pageScale="1" pageWidth="827" pageHeight="1169" math="0" shadow="0">
      <root>
        <mxCell id="0" />
        <mxCell id="1" parent="0" />
        <mxCell id="3uV2Bdasm1sYeJ457ex3-10" value="" style="edgeStyle=orthogonalEdgeStyle;rounded=0;orthogonalLoop=1;jettySize=auto;html=1;" edge="1" parent="1" source="3uV2Bdasm1sYeJ457ex3-1" target="3uV2Bdasm1sYeJ457ex3-2">
          <mxGeometry relative="1" as="geometry" />
        </mxCell>
        <mxCell id="3uV2Bdasm1sYeJ457ex3-1" value="Aloitus HTML-sivu" style="ellipse;whiteSpace=wrap;html=1;" vertex="1" parent="1">
          <mxGeometry x="354" y="40" width="120" height="80" as="geometry" />
        </mxCell>
        <mxCell id="3uV2Bdasm1sYeJ457ex3-11" value="" style="edgeStyle=orthogonalEdgeStyle;rounded=0;orthogonalLoop=1;jettySize=auto;html=1;" edge="1" parent="1" source="3uV2Bdasm1sYeJ457ex3-2" target="3uV2Bdasm1sYeJ457ex3-3">
          <mxGeometry relative="1" as="geometry" />
        </mxCell>
        <mxCell id="3uV2Bdasm1sYeJ457ex3-2" value="&lt;div&gt;Pyydä käyttäjältä&lt;/div&gt;&lt;div&gt;luku&lt;br&gt;&lt;/div&gt;" style="shape=parallelogram;perimeter=parallelogramPerimeter;whiteSpace=wrap;html=1;fixedSize=1;" vertex="1" parent="1">
          <mxGeometry x="354" y="170" width="120" height="60" as="geometry" />
        </mxCell>
        <mxCell id="3uV2Bdasm1sYeJ457ex3-12" value="" style="edgeStyle=orthogonalEdgeStyle;rounded=0;orthogonalLoop=1;jettySize=auto;html=1;" edge="1" parent="1" source="3uV2Bdasm1sYeJ457ex3-3" target="3uV2Bdasm1sYeJ457ex3-4">
          <mxGeometry relative="1" as="geometry" />
        </mxCell>
        <mxCell id="3uV2Bdasm1sYeJ457ex3-3" value="Luo muuttuja" style="rounded=0;whiteSpace=wrap;html=1;" vertex="1" parent="1">
          <mxGeometry x="354" y="280" width="120" height="60" as="geometry" />
        </mxCell>
        <mxCell id="3uV2Bdasm1sYeJ457ex3-13" value="" style="edgeStyle=orthogonalEdgeStyle;rounded=0;orthogonalLoop=1;jettySize=auto;html=1;" edge="1" parent="1" source="3uV2Bdasm1sYeJ457ex3-4" target="3uV2Bdasm1sYeJ457ex3-5">
          <mxGeometry relative="1" as="geometry" />
        </mxCell>
        <mxCell id="3uV2Bdasm1sYeJ457ex3-4" value="&lt;div&gt;Lue muuttujaan&lt;/div&gt;&lt;div&gt;käyttäjän luku&lt;br&gt;&lt;/div&gt;" style="rounded=0;whiteSpace=wrap;html=1;" vertex="1" parent="1">
          <mxGeometry x="354" y="380" width="120" height="60" as="geometry" />
        </mxCell>
        <mxCell id="3uV2Bdasm1sYeJ457ex3-14" value="" style="edgeStyle=orthogonalEdgeStyle;rounded=0;orthogonalLoop=1;jettySize=auto;html=1;" edge="1" parent="1" source="3uV2Bdasm1sYeJ457ex3-5" target="3uV2Bdasm1sYeJ457ex3-7">
          <mxGeometry relative="1" as="geometry" />
        </mxCell>
        <mxCell id="3uV2Bdasm1sYeJ457ex3-15" value="" style="edgeStyle=orthogonalEdgeStyle;rounded=0;orthogonalLoop=1;jettySize=auto;html=1;" edge="1" parent="1" source="3uV2Bdasm1sYeJ457ex3-5" target="3uV2Bdasm1sYeJ457ex3-6">
          <mxGeometry relative="1" as="geometry" />
        </mxCell>
        <mxCell id="3uV2Bdasm1sYeJ457ex3-5" value="&lt;div&gt;onko muuttuja&lt;/div&gt;&lt;div&gt;&amp;gt;=0&lt;br&gt;&lt;/div&gt;" style="rhombus;whiteSpace=wrap;html=1;" vertex="1" parent="1">
          <mxGeometry x="374" y="490" width="80" height="80" as="geometry" />
        </mxCell>
        <mxCell id="3uV2Bdasm1sYeJ457ex3-6" value="Tulosta:&lt;br&gt;&quot;luku on&lt;br&gt;positiivinen&quot;" style="shape=parallelogram;perimeter=parallelogramPerimeter;whiteSpace=wrap;html=1;fixedSize=1;" vertex="1" parent="1">
          <mxGeometry x="354" y="620" width="120" height="60" as="geometry" />
        </mxCell>
        <mxCell id="3uV2Bdasm1sYeJ457ex3-7" value="Tulosta:&lt;br&gt;&quot;luku on&lt;br&gt;negatiivinen&quot;" style="shape=parallelogram;perimeter=parallelogramPerimeter;whiteSpace=wrap;html=1;fixedSize=1;" vertex="1" parent="1">
          <mxGeometry x="540" y="500" width="120" height="60" as="geometry" />
        </mxCell>
        <mxCell id="3uV2Bdasm1sYeJ457ex3-8" value="The End" style="ellipse;whiteSpace=wrap;html=1;" vertex="1" parent="1">
          <mxGeometry x="354" y="720" width="120" height="80" as="geometry" />
        </mxCell>
        <mxCell id="3uV2Bdasm1sYeJ457ex3-9" value="" style="endArrow=classic;html=1;rounded=0;entryX=0.5;entryY=0;entryDx=0;entryDy=0;" edge="1" parent="1" target="3uV2Bdasm1sYeJ457ex3-8">
          <mxGeometry width="50" height="50" relative="1" as="geometry">
            <mxPoint x="414" y="680" as="sourcePoint" />
            <mxPoint x="464" y="630" as="targetPoint" />
          </mxGeometry>
        </mxCell>
        <mxCell id="3uV2Bdasm1sYeJ457ex3-16" value="" style="endArrow=classic;html=1;rounded=0;entryX=1;entryY=0.5;entryDx=0;entryDy=0;" edge="1" parent="1" target="3uV2Bdasm1sYeJ457ex3-8">
          <mxGeometry width="50" height="50" relative="1" as="geometry">
            <mxPoint x="600" y="560" as="sourcePoint" />
            <mxPoint x="600" y="760" as="targetPoint" />
            <Array as="points">
              <mxPoint x="600" y="760" />
            </Array>
          </mxGeometry>
        </mxCell>
        <mxCell id="3uV2Bdasm1sYeJ457ex3-17" value="Ei" style="text;html=1;align=center;verticalAlign=middle;resizable=0;points=[];autosize=1;strokeColor=none;fillColor=none;" vertex="1" parent="1">
          <mxGeometry x="485" y="498" width="30" height="30" as="geometry" />
        </mxCell>
        <mxCell id="3uV2Bdasm1sYeJ457ex3-18" value="Kyllä" style="text;html=1;align=center;verticalAlign=middle;resizable=0;points=[];autosize=1;strokeColor=none;fillColor=none;" vertex="1" parent="1">
          <mxGeometry x="345" y="568" width="50" height="30" as="geometry" />
        </mxCell>
      </root>
    </mxGraphModel>
  </diagram>
</mxfile>
